<svg width="173" height="60" viewBox="0 0 173 60" fill="none" xmlns="http://www.w3.org/2000/svg">
<g filter="url(#filter0_d_2576_1499)">
<rect x="5" y="3.9585" width="163" height="48.9846" rx="8" fill="#1E1E1E"/>
<path d="M35.3526 29.7519C35.3663 28.6826 35.6498 27.6343 36.1767 26.7043C36.7036 25.7744 37.4568 24.993 38.3662 24.433C37.7885 23.6065 37.0264 22.9264 36.1404 22.4466C35.2544 21.9668 34.2689 21.7005 33.2622 21.669C31.1148 21.4432 29.033 22.9562 27.9387 22.9562C26.8232 22.9562 25.1384 21.6914 23.3241 21.7288C22.1506 21.7668 21.0069 22.1086 20.0045 22.721C19.0021 23.3334 18.1751 24.1955 17.6041 25.2232C15.1309 29.5126 16.9757 35.8166 19.3448 39.2838C20.5302 40.9816 21.9155 42.8781 23.7281 42.8108C25.5019 42.7371 26.1644 41.6778 28.3055 41.6778C30.4267 41.6778 31.0482 42.8108 32.8977 42.7681C34.801 42.7371 36.0002 41.0627 37.144 39.3488C37.9956 38.1391 38.651 36.8021 39.0857 35.3873C37.9799 34.9188 37.0363 34.1346 36.3724 33.1324C35.7086 32.1303 35.3539 30.9546 35.3526 29.7519Z" fill="white"/>
<path d="M31.8627 19.389C32.9004 18.141 33.4117 16.537 33.2879 14.9175C31.7024 15.0843 30.2378 15.8434 29.186 17.0435C28.6718 17.6297 28.2779 18.3118 28.0269 19.0507C27.776 19.7895 27.6729 20.5707 27.7235 21.3495C28.5165 21.3577 29.301 21.1855 30.018 20.8459C30.735 20.5063 31.3657 20.0082 31.8627 19.389Z" fill="white"/>
<path d="M57.7737 38.5138H51.7206L50.267 42.8134H47.7031L53.4365 26.9058H56.1003L61.8337 42.8134H59.2261L57.7737 38.5138ZM52.3475 36.5297H57.1456L54.7803 29.5516H54.7141L52.3475 36.5297Z" fill="white"/>
<path d="M74.2147 37.0164C74.2147 40.6205 72.289 42.9361 69.383 42.9361C68.6468 42.9746 67.9147 42.8048 67.2704 42.4459C66.6262 42.0871 66.0958 41.5537 65.7401 40.9069H65.6851V46.6515H63.3086V31.2168H65.609V33.1458H65.6527C66.0248 32.5021 66.5641 31.9715 67.2132 31.6105C67.8624 31.2494 68.5971 31.0714 69.3392 31.0954C72.2777 31.0954 74.2147 33.4223 74.2147 37.0164ZM71.772 37.0164C71.772 34.6683 70.5606 33.1245 68.7123 33.1245C66.8965 33.1245 65.6752 34.7008 65.6752 37.0164C65.6752 39.3532 66.8965 40.9182 68.7123 40.9182C70.5606 40.9182 71.772 39.3858 71.772 37.0164Z" fill="white"/>
<path d="M86.9569 37.0164C86.9569 40.6205 85.0312 42.9361 82.1251 42.9361C81.389 42.9746 80.6569 42.8048 80.0126 42.4459C79.3684 42.087 78.838 41.5537 78.4823 40.9069H78.4273V46.6515H76.0508V31.2167H78.3511V33.1458H78.3948C78.7669 32.5021 79.3062 31.9715 79.9554 31.6105C80.6045 31.2494 81.3393 31.0714 82.0814 31.0954C85.0199 31.0954 86.9569 33.4222 86.9569 37.0164ZM84.5142 37.0164C84.5142 34.6683 83.3028 33.1245 81.4545 33.1245C79.6387 33.1245 78.4174 34.7008 78.4174 37.0164C78.4174 39.3532 79.6387 40.9182 81.4545 40.9182C83.3028 40.9182 84.5142 39.3857 84.5142 37.0164H84.5142Z" fill="white"/>
<path d="M95.3859 38.3827C95.562 39.9602 97.0918 40.996 99.1823 40.996C101.185 40.996 102.627 39.9602 102.627 38.5378C102.627 37.3031 101.757 36.5638 99.6994 36.0571L97.6413 35.5604C94.7253 34.8549 93.3715 33.4888 93.3715 31.272C93.3715 28.5273 95.7593 26.6421 99.1499 26.6421C102.505 26.6421 104.806 28.5273 104.883 31.272H102.484C102.341 29.6845 101.031 28.7263 99.1161 28.7263C97.2017 28.7263 95.8916 29.6958 95.8916 31.1069C95.8916 32.2315 96.7284 32.8933 98.7752 33.3999L100.525 33.8303C103.783 34.6021 105.137 35.9132 105.137 38.24C105.137 41.2161 102.77 43.0801 99.0062 43.0801C95.4845 43.0801 93.1067 41.2599 92.9531 38.3826L95.3859 38.3827Z" fill="white"/>
<path d="M110.263 28.4722V31.2169H112.464V33.1021H110.263V39.4959C110.263 40.4892 110.703 40.9521 111.671 40.9521C111.933 40.9475 112.194 40.9291 112.453 40.897V42.771C112.018 42.8524 111.576 42.8893 111.133 42.8811C108.789 42.8811 107.875 41.9991 107.875 39.7498V33.1021H106.191V31.2169H107.875V28.4722H110.263Z" fill="white"/>
<path d="M113.742 37.014C113.742 33.3649 115.888 31.0718 119.233 31.0718C122.59 31.0718 124.726 33.3648 124.726 37.014C124.726 40.6732 122.601 42.9562 119.233 42.9562C115.866 42.9562 113.742 40.6732 113.742 37.014ZM122.304 37.014C122.304 34.5108 121.159 33.0333 119.233 33.0333C117.308 33.0333 116.164 34.522 116.164 37.014C116.164 39.5272 117.308 40.9934 119.233 40.9934C121.159 40.9934 122.304 39.5272 122.304 37.014H122.304Z" fill="white"/>
<path d="M126.676 31.2166H128.942V33.1907H128.997C129.151 32.5742 129.511 32.0293 130.018 31.6477C130.526 31.2661 131.148 31.071 131.782 31.0953C132.056 31.0943 132.329 31.1241 132.597 31.1841V33.4109C132.251 33.305 131.89 33.2564 131.529 33.267C131.184 33.253 130.839 33.314 130.52 33.4458C130.2 33.5776 129.913 33.7771 129.678 34.0306C129.443 34.2841 129.265 34.5856 129.157 34.9144C129.049 35.2432 129.013 35.5915 129.052 35.9354V42.8146H126.676L126.676 31.2166Z" fill="white"/>
<path d="M143.561 39.4059C143.241 41.5113 141.195 42.9562 138.576 42.9562C135.208 42.9562 133.117 40.6957 133.117 37.069C133.117 33.4312 135.219 31.0718 138.476 31.0718C141.679 31.0718 143.694 33.276 143.694 36.7926V37.6082H135.516V37.7521C135.478 38.1789 135.532 38.6089 135.673 39.0135C135.814 39.4181 136.039 39.788 136.333 40.0988C136.628 40.4095 136.985 40.6538 137.381 40.8156C137.777 40.9774 138.203 41.053 138.631 41.0372C139.192 41.0899 139.756 40.9596 140.238 40.6657C140.719 40.3718 141.094 39.9299 141.305 39.4059L143.561 39.4059ZM135.527 35.9444H141.316C141.337 35.5606 141.279 35.1765 141.145 34.8163C141.011 34.4561 140.805 34.1274 140.538 33.851C140.271 33.5746 139.95 33.3564 139.596 33.2101C139.241 33.0638 138.86 32.9926 138.476 33.0008C138.089 32.9985 137.705 33.073 137.347 33.22C136.989 33.367 136.664 33.5835 136.389 33.8572C136.115 34.1309 135.898 34.4562 135.75 34.8145C135.602 35.1727 135.526 35.5567 135.527 35.9444V35.9444Z" fill="white"/>
<path d="M52.0491 14.9359C52.5474 14.9001 53.0473 14.9755 53.513 15.1567C53.9786 15.3379 54.3983 15.6203 54.7418 15.9836C55.0852 16.347 55.3439 16.7821 55.4992 17.2577C55.6544 17.7333 55.7024 18.2375 55.6395 18.7339C55.6395 21.1759 54.322 22.5796 52.0491 22.5796H49.293V14.9359H52.0491ZM50.4781 21.4986H51.9168C52.2728 21.5199 52.6291 21.4614 52.9597 21.3274C53.2903 21.1934 53.5869 20.9872 53.828 20.7239C54.069 20.4605 54.2484 20.1467 54.3531 19.8051C54.4578 19.4636 54.4851 19.103 54.4332 18.7495C54.4814 18.3974 54.4513 18.0391 54.345 17.7C54.2387 17.361 54.0588 17.0497 53.8183 16.7884C53.5778 16.5272 53.2826 16.3225 52.9539 16.189C52.6251 16.0554 52.271 15.9964 51.9168 16.0161H50.4781V21.4986Z" fill="white"/>
<path d="M56.9777 19.6917C56.9415 19.3126 56.9848 18.9301 57.1048 18.5688C57.2248 18.2075 57.4189 17.8752 57.6745 17.5934C57.9302 17.3116 58.2419 17.0865 58.5895 16.9324C58.9372 16.7783 59.3131 16.6987 59.6933 16.6987C60.0734 16.6987 60.4494 16.7783 60.797 16.9324C61.1447 17.0865 61.4563 17.3116 61.712 17.5934C61.9677 17.8752 62.1618 18.2075 62.2818 18.5688C62.4018 18.9301 62.4451 19.3126 62.4089 19.6917C62.4458 20.0711 62.403 20.4541 62.2833 20.8161C62.1636 21.178 61.9697 21.5108 61.7139 21.7932C61.4582 22.0755 61.1463 22.3012 60.7983 22.4556C60.4503 22.61 60.0739 22.6897 59.6933 22.6897C59.3127 22.6897 58.9363 22.61 58.5883 22.4556C58.2403 22.3012 57.9284 22.0755 57.6727 21.7932C57.4169 21.5108 57.2229 21.178 57.1033 20.8161C56.9836 20.4541 56.9408 20.0711 56.9777 19.6917ZM61.2399 19.6917C61.2399 18.4413 60.6792 17.7101 59.6952 17.7101C58.7073 17.7101 58.1516 18.4413 58.1516 19.6917C58.1516 20.9521 58.7074 21.6776 59.6952 21.6776C60.6792 21.6776 61.24 20.947 61.24 19.6917H61.2399Z" fill="white"/>
<path d="M69.6295 22.5764H68.4506L67.2605 18.3281H67.1705L65.9854 22.5764H64.8177L63.2305 16.8081H64.3831L65.4147 21.2097H65.4996L66.6835 16.8081H67.7737L68.9576 21.2097H69.0475L70.0741 16.8081H71.2105L69.6295 22.5764Z" fill="white"/>
<path d="M72.5508 16.8099H73.6448V17.7262H73.7297C73.8737 17.3971 74.1167 17.1212 74.4248 16.937C74.7328 16.7528 75.0905 16.6694 75.4481 16.6985C75.7283 16.6774 76.0096 16.7198 76.2712 16.8224C76.5329 16.925 76.7681 17.0852 76.9595 17.2913C77.151 17.4973 77.2936 17.7439 77.377 18.0127C77.4604 18.2814 77.4823 18.5656 77.4412 18.844V22.5782H76.3048V19.1299C76.3048 18.2029 75.9027 17.7419 75.0622 17.7419C74.872 17.733 74.6821 17.7654 74.5055 17.837C74.329 17.9085 74.1699 18.0174 74.0393 18.1562C73.9087 18.2951 73.8097 18.4606 73.7489 18.6414C73.6881 18.8222 73.6671 19.014 73.6872 19.2037V22.5782H72.5508L72.5508 16.8099Z" fill="white"/>
<path d="M79.2422 14.5581H80.3786V22.5782H79.2422V14.5581Z" fill="white"/>
<path d="M81.962 19.6918C81.9259 19.3127 81.9692 18.9302 82.0892 18.5688C82.2092 18.2075 82.4033 17.8753 82.6591 17.5934C82.9148 17.3116 83.2265 17.0865 83.5741 16.9324C83.9218 16.7783 84.2978 16.6987 84.6779 16.6987C85.0581 16.6987 85.4341 16.7783 85.7818 16.9324C86.1294 17.0865 86.4411 17.3116 86.6968 17.5934C86.9525 17.8753 87.1466 18.2075 87.2667 18.5688C87.3867 18.9302 87.43 19.3127 87.3938 19.6918C87.4307 20.0713 87.3879 20.4543 87.2681 20.8162C87.1484 21.1781 86.9544 21.5109 86.6987 21.7933C86.4429 22.0756 86.131 22.3012 85.783 22.4556C85.4349 22.61 85.0586 22.6898 84.6779 22.6898C84.2973 22.6898 83.9209 22.61 83.5729 22.4556C83.2249 22.3012 82.913 22.0756 82.6572 21.7933C82.4014 21.5109 82.2075 21.1781 82.0877 20.8162C81.968 20.4543 81.9252 20.0713 81.962 19.6918ZM86.2243 19.6918C86.2243 18.4414 85.6636 17.7102 84.6795 17.7102C83.6917 17.7102 83.136 18.4414 83.136 19.6918C83.136 20.9522 83.6917 21.6777 84.6795 21.6777C85.6636 21.6777 86.2243 20.9472 86.2243 19.6918Z" fill="white"/>
<path d="M88.5938 20.9471C88.5938 19.9088 89.3655 19.3102 90.7355 19.2251L92.2953 19.135V18.6371C92.2953 18.0279 91.8932 17.6839 91.1164 17.6839C90.482 17.6839 90.0424 17.9172 89.9163 18.325H88.816C88.9322 17.3342 89.8626 16.6987 91.1688 16.6987C92.6125 16.6987 93.4267 17.4187 93.4267 18.6371V22.5784H92.3328V21.7678H92.2428C92.0603 22.0585 91.8041 22.2956 91.5002 22.4547C91.1963 22.6138 90.8557 22.6893 90.5132 22.6734C90.2715 22.6986 90.0271 22.6728 89.796 22.5976C89.5648 22.5224 89.352 22.3995 89.1711 22.2369C88.9903 22.0742 88.8455 21.8754 88.746 21.6533C88.6466 21.4311 88.5947 21.1906 88.5938 20.9471ZM92.2953 20.4542V19.972L90.8891 20.062C90.0961 20.1152 89.7364 20.3854 89.7364 20.8939C89.7364 21.4131 90.186 21.7152 90.8042 21.7152C90.9854 21.7336 91.1683 21.7152 91.3423 21.6613C91.5162 21.6074 91.6775 21.519 91.8166 21.4013C91.9557 21.2837 92.0698 21.1392 92.152 20.9765C92.2343 20.8138 92.283 20.6362 92.2953 20.4542Z" fill="white"/>
<path d="M94.918 19.6916C94.918 17.8689 95.8534 16.7142 97.3082 16.7142C97.6681 16.6976 98.0253 16.7839 98.338 16.9632C98.6507 17.1424 98.906 17.407 99.0741 17.7262H99.159V14.5581H100.295V22.5782H99.2065V21.6669H99.1166C98.9355 21.9839 98.6712 22.2453 98.3525 22.4227C98.0338 22.6001 97.6726 22.6867 97.3082 22.6733C95.8434 22.6734 94.918 21.5187 94.918 19.6916ZM96.0919 19.6916C96.0919 20.9151 96.6676 21.6513 97.6305 21.6513C98.5883 21.6513 99.1803 20.9044 99.1803 19.6966C99.1803 18.4944 98.5821 17.7369 97.6305 17.7369C96.6738 17.7369 96.0919 18.4781 96.0919 19.6916H96.0919Z" fill="white"/>
<path d="M104.997 19.6917C104.961 19.3126 105.004 18.9301 105.124 18.5688C105.244 18.2075 105.438 17.8752 105.694 17.5934C105.95 17.3116 106.261 17.0865 106.609 16.9324C106.957 16.7783 107.333 16.6987 107.713 16.6987C108.093 16.6987 108.469 16.7783 108.817 16.9324C109.164 17.0865 109.476 17.3116 109.732 17.5934C109.987 17.8752 110.181 18.2075 110.301 18.5688C110.421 18.9301 110.465 19.3126 110.428 19.6917C110.465 20.0711 110.423 20.4541 110.303 20.8161C110.183 21.178 109.989 21.5108 109.733 21.7932C109.478 22.0755 109.166 22.3012 108.818 22.4556C108.47 22.61 108.093 22.6897 107.713 22.6897C107.332 22.6897 106.956 22.61 106.608 22.4556C106.26 22.3012 105.948 22.0755 105.692 21.7932C105.436 21.5108 105.242 21.178 105.123 20.8161C105.003 20.4541 104.96 20.0711 104.997 19.6917ZM109.259 19.6917C109.259 18.4413 108.699 17.7101 107.715 17.7101C106.727 17.7101 106.171 18.4413 106.171 19.6917C106.171 20.9521 106.727 21.6776 107.715 21.6776C108.699 21.6776 109.259 20.947 109.259 19.6917Z" fill="white"/>
<path d="M111.953 16.8099H113.047V17.7262H113.132C113.276 17.3971 113.519 17.1212 113.827 16.937C114.135 16.7528 114.493 16.6694 114.85 16.6985C115.131 16.6774 115.412 16.7198 115.674 16.8224C115.935 16.925 116.17 17.0852 116.362 17.2913C116.553 17.4973 116.696 17.7439 116.779 18.0127C116.863 18.2814 116.885 18.5656 116.844 18.844V22.5782H115.707V19.1299C115.707 18.2029 115.305 17.7419 114.465 17.7419C114.274 17.733 114.084 17.7654 113.908 17.837C113.731 17.9085 113.572 18.0174 113.442 18.1562C113.311 18.2951 113.212 18.4606 113.151 18.6414C113.09 18.8222 113.069 19.014 113.09 19.2037V22.5782H111.953V16.8099Z" fill="white"/>
<path d="M123.267 15.3745V16.8369H124.514V17.7958H123.267V20.7619C123.267 21.3662 123.515 21.6307 124.081 21.6307C124.226 21.6303 124.37 21.6215 124.514 21.6045V22.5527C124.31 22.5893 124.103 22.6087 123.896 22.6109C122.632 22.6109 122.129 22.1655 122.129 21.0534V17.7958H121.215V16.8369H122.129V15.3745H123.267Z" fill="white"/>
<path d="M126.062 14.5581H127.189V17.7369H127.279C127.43 17.4047 127.68 17.1272 127.994 16.9423C128.308 16.7574 128.671 16.674 129.035 16.7036C129.313 16.6884 129.592 16.735 129.851 16.8401C130.109 16.9452 130.342 17.1062 130.531 17.3116C130.721 17.517 130.862 17.7617 130.947 18.0283C131.031 18.295 131.055 18.5769 131.018 18.854V22.5782H129.88V19.1349C129.88 18.2135 129.452 17.7469 128.649 17.7469C128.454 17.7308 128.257 17.7577 128.073 17.8257C127.889 17.8937 127.723 18.001 127.584 18.1403C127.446 18.2796 127.34 18.4475 127.274 18.6321C127.207 18.8168 127.182 19.0137 127.199 19.2093V22.5782H126.063L126.062 14.5581Z" fill="white"/>
<path d="M137.645 21.021C137.49 21.5482 137.156 22.0042 136.7 22.3093C136.243 22.6144 135.695 22.7491 135.149 22.6898C134.77 22.6999 134.393 22.6271 134.045 22.4765C133.696 22.326 133.384 22.1012 133.131 21.818C132.878 21.5347 132.69 21.1996 132.579 20.836C132.468 20.4725 132.438 20.0891 132.489 19.7125C132.439 19.3347 132.47 18.9505 132.581 18.5858C132.691 18.2212 132.879 17.8846 133.13 17.5988C133.382 17.313 133.692 17.0848 134.04 16.9295C134.387 16.7742 134.764 16.6956 135.144 16.6988C136.747 16.6988 137.713 17.7954 137.713 19.6067V20.004H133.647V20.0678C133.629 20.2794 133.656 20.4925 133.725 20.6933C133.794 20.8941 133.905 21.0782 134.049 21.2338C134.193 21.3894 134.369 21.513 134.563 21.5968C134.758 21.6806 134.969 21.7226 135.181 21.7203C135.452 21.753 135.728 21.7039 135.972 21.5794C136.216 21.4549 136.417 21.2605 136.551 21.021L137.645 21.021ZM133.647 19.162H136.556C136.57 18.9684 136.544 18.774 136.478 18.5912C136.413 18.4083 136.311 18.2412 136.177 18.1005C136.044 17.9597 135.882 17.8485 135.703 17.774C135.524 17.6995 135.332 17.6633 135.138 17.6677C134.942 17.6653 134.747 17.7022 134.564 17.7764C134.382 17.8507 134.217 17.9607 134.078 18.0999C133.939 18.2392 133.829 18.4049 133.755 18.5873C133.681 18.7697 133.645 18.9651 133.647 19.162H133.647Z" fill="white"/>
</g>
<defs>
<filter id="filter0_d_2576_1499" x="0" y="0.958496" width="173" height="58.9846" filterUnits="userSpaceOnUse" color-interpolation-filters="sRGB">
<feFlood flood-opacity="0" result="BackgroundImageFix"/>
<feColorMatrix in="SourceAlpha" type="matrix" values="0 0 0 0 0 0 0 0 0 0 0 0 0 0 0 0 0 0 127 0" result="hardAlpha"/>
<feOffset dy="2"/>
<feGaussianBlur stdDeviation="2.5"/>
<feComposite in2="hardAlpha" operator="out"/>
<feColorMatrix type="matrix" values="0 0 0 0 0 0 0 0 0 0 0 0 0 0 0 0 0 0 0.1 0"/>
<feBlend mode="normal" in2="BackgroundImageFix" result="effect1_dropShadow_2576_1499"/>
<feBlend mode="normal" in="SourceGraphic" in2="effect1_dropShadow_2576_1499" result="shape"/>
</filter>
</defs>
</svg>
