<svg width="173" height="60" viewBox="0 0 173 60" fill="none" xmlns="http://www.w3.org/2000/svg">
<g filter="url(#filter0_d_2576_1529)">
<rect x="5" y="3.9585" width="163" height="48.9846" rx="8" fill="#1E1E1E"/>
<path d="M30.2067 28.144L17.25 41.9878C17.25 41.9904 17.2525 41.9929 17.2525 41.9955C17.6494 43.4987 19.013 44.605 20.6335 44.605C21.2797 44.605 21.8877 44.4283 22.4093 44.121L22.45 44.0954L37.0348 35.6241L30.2067 28.144Z" fill="#E44550"/>
<path d="M43.312 25.7864L43.2993 25.7787L37.0029 22.1039L29.9102 28.4573L37.0283 35.6226L43.2917 31.9836C44.3907 31.3869 45.1361 30.2218 45.1361 28.8773C45.1361 27.5431 44.4009 26.3856 43.312 25.7864Z" fill="#F5CF4B"/>
<path d="M17.2485 15.7143C17.1696 16.0036 17.1289 16.3058 17.1289 16.6208V41.0793C17.1289 41.3943 17.1696 41.6965 17.2485 41.9858L30.6503 28.4979L17.2485 15.7143Z" fill="#5BC9FA"/>
<path d="M30.3008 28.8511L37.0068 22.1033L22.4398 13.6013C21.9106 13.2812 21.2924 13.0968 20.631 13.0968C19.013 13.0968 17.6469 14.2057 17.25 15.7114V15.714L30.3008 28.8511Z" fill="#72ED82"/>
<path d="M62.7044 16.8973C62.7044 17.9242 62.4017 18.7411 61.7987 19.3506C61.1118 20.0753 60.2164 20.439 59.1173 20.439C58.0641 20.439 57.1661 20.0728 56.4309 19.3352C55.6931 18.6003 55.3242 17.6886 55.3242 16.6003C55.3242 15.5119 55.6931 14.6003 56.4309 13.8653C57.1686 13.1304 58.0641 12.7616 59.1173 12.7616C59.6414 12.7616 60.14 12.864 60.6158 13.0689C61.0915 13.2738 61.4731 13.5478 61.758 13.8909L61.1169 14.5362C60.6336 13.9549 59.967 13.663 59.1173 13.663C58.349 13.663 57.6851 13.9345 57.1228 14.4799C56.5606 15.0254 56.2808 15.7296 56.2808 16.6003C56.2808 17.4684 56.5606 18.1752 57.1228 18.7206C57.6851 19.2661 58.349 19.5376 59.1173 19.5376C59.934 19.5376 60.6132 19.2635 61.1576 18.7155C61.5113 18.3596 61.7148 17.8628 61.7707 17.2277H59.1199V16.3442H62.6586C62.6866 16.5337 62.7044 16.7181 62.7044 16.8973Z" fill="white"/>
<path d="M68.3132 13.8267H64.9882V16.1571H67.985V17.0406H64.9856V19.3709H68.3106V20.2749H64.0469V12.9253H68.3106V13.8267" fill="white"/>
<path d="M72.272 20.271H71.3333V13.8254H69.293V12.9214H74.3098V13.8254H72.2695L72.272 20.271Z" fill="white"/>
<path d="M77.9453 20.271V12.9214H78.8841V20.271H77.9453Z" fill="white"/>
<path d="M83.0415 20.271H82.1028V13.8254H80.0625V12.9214H85.0793V13.8254H83.039L83.0415 20.271Z" fill="white"/>
<path d="M89.9165 18.7078C90.4584 19.2584 91.1173 19.535 91.9009 19.535C92.6819 19.535 93.3459 19.261 93.8852 18.7078C94.4271 18.1573 94.6967 17.453 94.6967 16.5977C94.6967 15.7424 94.4245 15.0382 93.8852 14.4876C93.3459 13.937 92.6844 13.6604 91.9009 13.6604C91.1198 13.6604 90.4584 13.9345 89.9165 14.4876C89.3772 15.0382 89.105 15.7424 89.105 16.5977C89.105 17.453 89.3772 18.1573 89.9165 18.7078ZM94.5797 19.325C93.8623 20.0676 92.9693 20.439 91.9009 20.439C90.8349 20.439 89.942 20.0676 89.2246 19.325C88.5071 18.5824 88.1484 17.6733 88.1484 16.6003C88.1484 15.5273 88.5071 14.6182 89.2246 13.8756C89.942 13.1329 90.8349 12.7616 91.9009 12.7616C92.9617 12.7616 93.8521 13.1355 94.5746 13.8807C95.2946 14.6259 95.6558 15.5324 95.6558 16.6003C95.6533 17.6733 95.2946 18.5824 94.5797 19.325Z" fill="white"/>
<path d="M96.9766 20.2723V12.9228H98.1188L101.668 18.6411H101.708L101.668 17.225V12.9253H102.606V20.2749H101.627L97.9153 14.28H97.8746L97.9153 15.6961V20.2749L96.9766 20.2723Z" fill="white"/>
<path d="M135.13 41.1029H137.399V25.7892H135.13V41.1029ZM155.584 31.3052L152.979 37.9429H152.9L150.198 31.3026H147.751L151.806 40.5831L149.496 45.7457H151.864L158.107 31.3052H155.584ZM142.703 39.3616C141.961 39.3616 140.923 38.9877 140.923 38.0607C140.923 36.8776 142.215 36.4243 143.329 36.4243C144.326 36.4243 144.797 36.642 145.403 36.9365C145.23 38.3577 144.016 39.3616 142.703 39.3616ZM142.978 30.9697C141.335 30.9697 139.63 31.6996 138.926 33.3155L140.943 34.1631C141.373 33.3155 142.177 33.0414 143.016 33.0414C144.192 33.0414 145.385 33.7508 145.405 35.0107V35.1695C144.993 34.9339 144.113 34.5779 143.037 34.5779C140.864 34.5779 138.653 35.779 138.653 38.0248C138.653 40.0735 140.434 41.3949 142.431 41.3949C143.958 41.3949 144.8 40.706 145.329 39.8968H145.408V41.0799H147.601V35.2079C147.598 32.4857 145.581 30.9697 142.978 30.9697ZM128.945 33.1695H125.717V27.9198H128.945C130.642 27.9198 131.606 29.3359 131.606 30.5446C131.606 31.7303 130.642 33.1695 128.945 33.1695ZM128.887 25.7866H123.445V41.1004H125.717V35.2975H128.887C131.405 35.2975 133.878 33.464 133.878 30.5421C133.878 27.6202 131.403 25.7866 128.887 25.7866ZM99.216 39.3667C97.6489 39.3667 96.3337 38.0453 96.3337 36.2297C96.3337 34.3936 97.6464 33.0517 99.216 33.0517C100.765 33.0517 101.981 34.3936 101.981 36.2297C101.979 38.0427 100.763 39.3667 99.216 39.3667ZM101.824 32.1631H101.745C101.236 31.551 100.254 30.9979 99.0201 30.9979C96.4329 30.9979 94.0593 33.2873 94.0593 36.2271C94.0593 39.149 96.4329 41.4179 99.0201 41.4179C100.257 41.4179 101.236 40.8648 101.745 40.2348H101.824V40.9851C101.824 42.9775 100.765 44.0453 99.0583 44.0453C97.6667 44.0453 96.8043 43.0389 96.4507 42.1913L94.4714 43.021C95.0413 44.4013 96.5499 46.0991 99.0583 46.0991C101.724 46.0991 103.978 44.5216 103.978 40.6727V31.318H101.821V32.1631H101.824ZM105.548 41.1029H107.822V25.7892H105.548V41.1029ZM111.175 36.0504C111.117 34.0376 112.725 33.0107 113.882 33.0107C114.785 33.0107 115.549 33.464 115.803 34.117L111.175 36.0504ZM118.233 34.3142C117.8 33.149 116.487 30.9979 113.801 30.9979C111.135 30.9979 108.919 33.1106 108.919 36.2066C108.919 39.1285 111.114 41.4179 114.055 41.4179C116.429 41.4179 117.8 39.9582 118.367 39.1081L116.602 37.9249C116.014 38.7931 115.21 39.3667 114.053 39.3667C112.895 39.3667 112.073 38.834 111.544 37.7867L118.464 34.9057L118.233 34.3142ZM63.0936 32.5959V34.8059H68.347C68.1893 36.0479 67.7797 36.957 67.1513 37.5895C66.3856 38.3603 65.1899 39.2079 63.0936 39.2079C59.8576 39.2079 57.3289 36.5831 57.3289 33.3283C57.3289 30.0709 59.8576 27.446 63.0936 27.446C64.8388 27.446 66.1133 28.1374 67.0546 29.0261L68.6039 27.4665C67.2912 26.204 65.546 25.236 63.0936 25.236C58.6619 25.236 54.9375 28.8673 54.9375 33.3283C54.9375 37.7892 58.6619 41.4205 63.0936 41.4205C65.485 41.4205 67.2887 40.6317 68.7006 39.1516C70.1507 37.6919 70.6035 35.6381 70.6035 33.9813C70.6035 33.4691 70.5654 32.9953 70.4865 32.601H63.0936V32.5959ZM76.5769 39.3667C75.0072 39.3667 73.6563 38.0632 73.6563 36.2092C73.6563 34.3347 75.0098 33.0517 76.5769 33.0517C78.144 33.0517 79.4974 34.3347 79.4974 36.2092C79.4974 38.0632 78.1465 39.3667 76.5769 39.3667ZM76.5769 30.9979C73.7148 30.9979 71.382 33.1874 71.382 36.2066C71.382 39.2054 73.7148 41.4179 76.5769 41.4179C79.4389 41.4179 81.7717 39.2079 81.7717 36.2066C81.7717 33.1874 79.4389 30.9979 76.5769 30.9979ZM87.9104 39.3667C86.3408 39.3667 84.9899 38.0632 84.9899 36.2092C84.9899 34.3347 86.3433 33.0517 87.9104 33.0517C89.4776 33.0517 90.831 34.3347 90.831 36.2092C90.831 38.0632 89.4801 39.3667 87.9104 39.3667ZM87.9104 30.9979C85.0484 30.9979 82.7156 33.1874 82.7156 36.2066C82.7156 39.2054 85.0484 41.4179 87.9104 41.4179C90.7725 41.4179 93.1053 39.2079 93.1053 36.2066C93.1053 33.1874 90.7725 30.9979 87.9104 30.9979Z" fill="white"/>
</g>
<defs>
<filter id="filter0_d_2576_1529" x="0" y="0.958496" width="173" height="58.9846" filterUnits="userSpaceOnUse" color-interpolation-filters="sRGB">
<feFlood flood-opacity="0" result="BackgroundImageFix"/>
<feColorMatrix in="SourceAlpha" type="matrix" values="0 0 0 0 0 0 0 0 0 0 0 0 0 0 0 0 0 0 127 0" result="hardAlpha"/>
<feOffset dy="2"/>
<feGaussianBlur stdDeviation="2.5"/>
<feComposite in2="hardAlpha" operator="out"/>
<feColorMatrix type="matrix" values="0 0 0 0 0 0 0 0 0 0 0 0 0 0 0 0 0 0 0.1 0"/>
<feBlend mode="normal" in2="BackgroundImageFix" result="effect1_dropShadow_2576_1529"/>
<feBlend mode="normal" in="SourceGraphic" in2="effect1_dropShadow_2576_1529" result="shape"/>
</filter>
</defs>
</svg>
