<svg width="50" height="50" viewBox="0 0 50 50" fill="none" xmlns="http://www.w3.org/2000/svg">
<path fill-rule="evenodd" clip-rule="evenodd" d="M11.3667 49.9754C10.2516 49.9358 8.81449 49.8486 8.16129 49.7167C7.16419 49.5154 6.22256 49.2101 5.43949 48.811C4.51944 48.3421 3.69484 47.7438 2.98282 47.0329C2.26918 46.3207 1.66854 45.4953 1.19777 44.5739C0.799769 43.795 0.494655 42.8591 0.292444 41.8676C0.15795 41.2079 0.0690017 39.76 0.0286793 38.6378C0.0123278 38.1791 0.00393806 37.5854 0.00393806 37.3117L0 12.6923C0 12.4196 0.00830417 11.8258 0.0245701 11.3666C0.0642075 10.2516 0.151444 8.81449 0.283369 8.16129C0.484638 7.16427 0.790009 6.22256 1.18904 5.43949C1.65801 4.51935 2.25617 3.69493 2.96707 2.98282C3.67935 2.26926 4.5048 1.66862 5.42613 1.19777C6.2051 0.799854 7.14099 0.494655 8.13235 0.292444C8.79215 0.15795 10.2401 0.0690017 11.3623 0.028765C11.8209 0.0123278 12.4146 0.00393806 12.6883 0.00393806L37.3077 0C37.5805 0 38.1743 0.00821856 38.6333 0.0245701C39.7484 0.0642931 41.1856 0.151444 41.8387 0.283369C42.8358 0.484724 43.7775 0.790095 44.5605 1.18904C45.4806 1.65801 46.3052 2.25625 47.0172 2.96707C47.7307 3.67943 48.3314 4.50471 48.8022 5.42613C49.2001 6.2051 49.5054 7.1409 49.7076 8.13235C49.8421 8.79215 49.931 10.2402 49.9713 11.3623C49.9878 11.8209 49.9961 12.4146 49.9961 12.6883L50.0001 37.3077C50.0001 37.5805 49.9918 38.1743 49.9754 38.6334C49.9357 39.7484 49.8486 41.1855 49.7166 41.8387C49.5154 42.8358 49.21 43.7774 48.811 44.5605C48.3421 45.4806 47.7438 46.3052 47.033 47.0173C46.3207 47.7307 45.4952 48.3315 44.5739 48.8022C43.7949 49.2002 42.8591 49.5054 41.8677 49.7076C41.2079 49.842 39.7599 49.931 38.6378 49.9712C38.1791 49.9878 37.5854 49.9961 37.3117 49.9961L12.6923 50C12.4195 50 11.8257 49.9918 11.3667 49.9754Z" fill="#161722"/>
<mask id="mask0_3090_10482" style="mask-type:luminance" maskUnits="userSpaceOnUse" x="0" y="0" width="50" height="50">
<path fill-rule="evenodd" clip-rule="evenodd" d="M11.3667 49.9754C10.2516 49.9358 8.81449 49.8486 8.16129 49.7167C7.16419 49.5154 6.22256 49.2101 5.43949 48.811C4.51944 48.3421 3.69484 47.7438 2.98282 47.0329C2.26918 46.3207 1.66854 45.4953 1.19777 44.5739C0.799769 43.795 0.494655 42.8591 0.292444 41.8676C0.15795 41.2079 0.0690017 39.76 0.0286793 38.6378C0.0123278 38.1791 0.00393806 37.5854 0.00393806 37.3117L0 12.6923C0 12.4196 0.00830417 11.8258 0.0245701 11.3666C0.0642075 10.2516 0.151444 8.81449 0.283369 8.16129C0.484638 7.16427 0.790009 6.22256 1.18904 5.43949C1.65801 4.51935 2.25617 3.69493 2.96707 2.98282C3.67935 2.26926 4.5048 1.66862 5.42613 1.19777C6.2051 0.799854 7.14099 0.494655 8.13235 0.292444C8.79215 0.15795 10.2401 0.0690017 11.3623 0.028765C11.8209 0.0123278 12.4146 0.00393806 12.6883 0.00393806L37.3077 0C37.5805 0 38.1743 0.00821856 38.6333 0.0245701C39.7484 0.0642931 41.1856 0.151444 41.8387 0.283369C42.8358 0.484724 43.7775 0.790095 44.5605 1.18904C45.4806 1.65801 46.3052 2.25625 47.0172 2.96707C47.7307 3.67943 48.3314 4.50471 48.8022 5.42613C49.2001 6.2051 49.5054 7.1409 49.7076 8.13235C49.8421 8.79215 49.931 10.2402 49.9713 11.3623C49.9878 11.8209 49.9961 12.4146 49.9961 12.6883L50.0001 37.3077C50.0001 37.5805 49.9918 38.1743 49.9754 38.6334C49.9357 39.7484 49.8486 41.1855 49.7166 41.8387C49.5154 42.8358 49.21 43.7774 48.811 44.5605C48.3421 45.4807 47.7438 46.3052 47.033 47.0173C46.3207 47.7307 45.4952 48.3315 44.5739 48.8022C43.7949 49.2002 42.8591 49.5054 41.8677 49.7076C41.2079 49.842 39.7599 49.931 38.6378 49.9712C38.1791 49.9878 37.5854 49.9961 37.3117 49.9961L12.6923 50C12.4195 50 11.8257 49.9918 11.3667 49.9754Z" fill="white"/>
</mask>
<g mask="url(#mask0_3090_10482)">
<path d="M20.714 20.9267V19.3933C20.182 19.3086 19.6446 19.2627 19.106 19.2559C16.5705 19.2499 14.0993 20.0541 12.053 21.5514C10.0067 23.0487 8.49233 25.1606 7.73082 27.5792C6.96931 29.9977 7.00048 32.5963 7.81979 34.9958C8.63911 37.3954 10.2037 39.4704 12.2853 40.9182C10.7201 39.2415 9.67347 37.1477 9.2718 34.8894C8.87013 32.6311 9.13057 30.3048 10.0217 28.1912C10.9128 26.0777 12.3965 24.2671 14.2938 22.9781C16.191 21.6891 18.4208 20.9766 20.714 20.9267Z" fill="#65D2E9"/>
<path d="M21.0035 38.2504C22.404 38.2487 23.7499 37.7069 24.7609 36.7378C25.7719 35.7687 26.3702 34.447 26.4312 33.0479V7.11425H31.1703C31.0736 6.57249 31.0271 6.02296 31.0314 5.47266H24.5513V31.38C24.4991 32.7857 23.9046 34.1166 22.8923 35.0934C21.8801 36.0702 20.5289 36.617 19.1222 36.619C18.2489 36.6114 17.3898 36.397 16.6152 35.9934C17.1171 36.6887 17.7763 37.2556 18.5389 37.6478C19.3015 38.0401 20.146 38.2465 21.0035 38.2504Z" fill="#65D2E9"/>
<path d="M40.0205 15.9128V14.4715C38.2767 14.4715 36.5718 13.9569 35.1191 12.9922C36.3921 14.4731 38.1126 15.4994 40.0205 15.9158V15.9128Z" fill="#65D2E9"/>
<path d="M35.1182 12.9921C33.6877 11.3625 32.8989 9.26803 32.8992 7.09961H31.1699C31.3934 8.29824 31.8586 9.43882 32.5372 10.4519C33.2157 11.4649 34.0934 12.3292 35.1168 12.9921H35.1182Z" fill="#E6436D"/>
<path d="M19.1111 25.7404C17.8978 25.7472 16.7216 26.1592 15.7694 26.9109C14.8171 27.6627 14.1433 28.7111 13.855 29.8896C13.5668 31.0681 13.6806 32.3091 14.1784 33.4156C14.6762 34.522 15.5295 35.4303 16.6026 35.9963C16.0157 35.1857 15.6643 34.2286 15.5872 33.2307C15.5101 32.2329 15.7104 31.2332 16.1658 30.342C16.6212 29.4508 17.3141 28.7029 18.1679 28.1808C19.0217 27.6587 20.0033 27.3827 21.0041 27.3835C21.5493 27.3892 22.0908 27.4734 22.612 27.6334V21.0393C22.0797 20.9597 21.5423 20.9182 21.0041 20.915H20.7117V25.929C20.1901 25.7892 19.6509 25.7257 19.1111 25.7404Z" fill="#E6436D"/>
<path d="M40.0192 15.9126V20.9265C36.7905 20.9195 33.6458 19.8967 31.0307 18.003V31.1781C31.0241 34.3354 29.7652 37.3611 27.5303 39.5914C25.2955 41.8216 22.2671 43.0741 19.1098 43.0741C16.6678 43.0789 14.2846 42.3255 12.2891 40.918C13.9162 42.6683 16.0328 43.888 18.3631 44.4182C20.6934 44.9485 23.1293 44.7646 25.3536 43.8907C27.5779 43.0167 29.4875 41.4932 30.8336 39.5185C32.1796 37.5438 32.8998 35.2095 32.9003 32.8197V19.6855C35.5243 21.5667 38.6733 22.5756 41.902 22.5696V16.1129C41.2692 16.1115 40.6382 16.0444 40.0192 15.9126Z" fill="#E6436D"/>
<path d="M31.0318 31.1811V18.006C33.6573 19.8886 36.8087 20.8972 40.0394 20.8887V15.8747C38.1319 15.4722 36.4071 14.4605 35.1248 12.9921C34.1015 12.3292 33.2238 11.4649 32.5453 10.4519C31.8667 9.43882 31.4015 8.29824 31.178 7.09961H26.4316V33.0493C26.3854 34.1788 25.9886 35.2658 25.2962 36.1594C24.6039 37.053 23.6504 37.7087 22.5682 38.0355C21.4861 38.3623 20.329 38.3439 19.2578 37.9829C18.1866 37.6219 17.2544 36.9362 16.5908 36.0211C15.5173 35.4557 14.6637 34.5476 14.1655 33.4413C13.6673 32.335 13.5533 31.0939 13.8414 29.9153C14.1295 28.7367 14.8034 27.6882 15.7558 26.9365C16.7082 26.1849 17.8845 25.7731 19.0978 25.7667C19.6431 25.7711 20.1848 25.8553 20.7057 26.0166V21.0012C18.4 21.0404 16.1554 21.7497 14.2457 23.0424C12.336 24.3351 10.8437 26.1556 9.95069 28.2817C9.05767 30.4079 8.80253 32.748 9.21638 35.0166C9.63024 37.2853 10.6952 39.3846 12.2814 41.0585C14.296 42.4177 16.6812 43.1217 19.1109 43.0743C22.2677 43.0743 25.2957 41.8221 27.5305 39.5925C29.7653 37.3629 31.0245 34.3379 31.0318 31.1811Z" fill="white"/>
</g>
</svg>
