<svg width="50" height="50" viewBox="0 0 50 50" fill="none" xmlns="http://www.w3.org/2000/svg">
<path d="M45.2248 14.3875C44.7383 12.5804 43.3135 11.1557 41.5065 10.6691C38.2052 9.76562 24.9999 9.76562 24.9999 9.76562C24.9999 9.76562 11.7947 9.76562 8.49334 10.6344C6.72105 11.1209 5.26153 12.5804 4.77502 14.3875C3.90625 17.6888 3.90625 24.5347 3.90625 24.5347C3.90625 24.5347 3.90625 31.4153 4.77502 34.6819C5.26153 36.4889 6.6863 37.9137 8.49334 38.4002C11.8294 39.3037 24.9999 39.3037 24.9999 39.3037C24.9999 39.3037 38.2052 39.3037 41.5065 38.4349C43.3135 37.9484 44.7383 36.5236 45.2248 34.7166C46.0936 31.4153 46.0936 24.5694 46.0936 24.5694C46.0936 24.5694 46.1283 17.6888 45.2248 14.3875Z" fill="#FF0000"/>
<path d="M20.7969 30.618L31.7781 24.2934L20.7969 17.9688V30.618Z" fill="white"/>
</svg>
