<?xml version="1.0" encoding="UTF-8"?>
<svg id="Layer_2" data-name="Layer 2" xmlns="http://www.w3.org/2000/svg" viewBox="0 0 88.05 88.05">
  <defs>
    <style>
      .cls-1 {
        fill: #fff;
      }

      .cls-2 {
        fill: #8fdeff;
      }

      .cls-3 {
        fill: #00216b;
      }

      .cls-4 {
        fill: #3fa6eb;
      }

      .cls-5 {
        fill: #cce8ff;
      }
    </style>
  </defs>
  <g id="Layer_1-2" data-name="Layer 1">
    <g>
      <path class="cls-1" d="M88.05,52.86v35.19H0V0h88.05v52.52c-.89-2.8-1.59-5.69-1.6-8.76,0-3.68,2.07-5.75,1.23-7.87l-19.25-12.2c.11-.85,1.6-2.77.11-3.71L43.11,3.88c-.36-.23-1.02-.12-1.46-.05L6.9,9.6c-2.05.34-3.38,2.95-3.38,4.75l-.02,6.95c0,1.16.52,2.55,1.52,3.2l3.62,2.36c-.15.7-.29,1.41-.29,2.13v8.08c.14,1.48.68,2.96,1.97,3.78l6.79,4.31L1.07,56.45c-.76.54-1.07,1.18-.78,2.08,2.39,7.54,1.98,9.03,0,16.3-.25.93.23,1.71,1.19,1.88l43.32,7.76c1.23.22,2.11-.48,3.03-1.13l30.15-21.29c1.27-.9,1.86-2.54,1.89-4.01l.05-2.91,6.69-1.07c.79-.13,1.23-.47,1.45-1.2Z"/>
      <path class="cls-3" d="M88.05,52.52v.34c-.22.73-.66,1.07-1.45,1.2l-6.69,1.07-.05,2.91c-.03,1.47-.61,3.11-1.89,4.01l-30.15,21.29c-.92.65-1.8,1.35-3.03,1.13L1.47,76.7c-.95-.17-1.44-.95-1.19-1.88,1.98-7.27,2.39-8.76,0-16.3-.28-.9.02-1.54.78-2.08l16.02-11.28-6.79-4.31c-1.29-.82-1.83-2.3-1.98-3.78v-8.08c0-.72.15-1.43.3-2.13l-3.62-2.36c-.99-.65-1.52-2.04-1.52-3.2l.02-6.95c0-1.8,1.33-4.41,3.38-4.75L41.65,3.84c.44-.07,1.1-.18,1.46.05l25.42,16.1c1.49.95,0,2.86-.11,3.71l19.25,12.2c.85,2.12-1.23,4.19-1.23,7.87,0,3.06.71,5.96,1.6,8.76ZM33.11,25.48l30.79-5.07-21.72-13.78-30.89,5.05,21.82,13.8ZM28.82,36.27l.08-6.41c.01-1.09.37-2.09,1.06-3L7.37,12.55c-.59.4-1.04,1.12-1.05,1.85l-.02,6.9c0,.45.34.94.72,1.18l21.79,13.78ZM65.74,32.98c-1.3-4.12-1.39-5.95-.23-9.88l-33.13,5.33c-.41.3-.66.8-.66,1.31l.05,8.71,33.97-5.47ZM40.29,39.96l3.83,2.46,38.62-6.31-15.14-9.59c-.24,2.42.38,4.61,1.36,6.68.26.47.33,1.08.09,1.55-.19.35-.68.68-1.2.76l-27.57,4.45ZM40.77,43.68l-4.75-3.02-3.64.55c-.73.11-1.5-.1-2.17-.53l-19.04-12.2c-.09,2.96-.06,5.71,0,8.61,0,.48.31,1.18.75,1.45l27.45,17.39.03-9.24c0-1.19.6-2.17,1.37-3.01ZM43.42,58.14l41.33-6.66c-1.12-4.83-1.76-7.83-.25-12.71l-41.15,6.64c-.67.11-1.13,1.22-1.13,1.79l-.03,10.15c0,.19.2.56.31.68s.47.18.91.11ZM49.94,59.97l-6.86,1.05c-.69.11-1.38-.13-2-.49l-21.4-13.73-14.5,10.23,38.96,7.06,5.81-4.13ZM48.92,79.06l27.34-19.25c.46-.48.78-1.13.78-1.77v-2.45s-20.68,3.33-20.68,3.33l-9.07,6.42c.9,1.07,1.51,2.37,1.53,3.83l.1,9.89ZM46.03,80.46l-.04-11.44c0-1.17-.81-1.91-1.85-2.1L3.62,59.72c1.65,6.31,1.45,8.23-.22,14.45l42.04,7.53c.35-.26.58-.74.58-1.25Z"/>
      <path class="cls-5" d="M46.03,80.46c0,.51-.23.99-.58,1.25l-42.04-7.53c1.67-6.23,1.87-8.14.22-14.45l40.51,7.2c1.04.18,1.84.93,1.85,2.1l.04,11.44Z"/>
      <polygon class="cls-4" points="33.11 25.48 11.29 11.69 42.18 6.63 63.89 20.42 33.11 25.48"/>
      <path class="cls-5" d="M43.42,58.14c-.44.07-.8.02-.91-.11s-.31-.49-.31-.68l.03-10.15c0-.57.46-1.68,1.13-1.79l41.15-6.64c-1.51,4.88-.87,7.88.25,12.71l-41.33,6.66Z"/>
      <path class="cls-5" d="M65.74,32.98l-33.97,5.47-.05-8.71c0-.51.25-1.01.66-1.31l33.13-5.33c-1.16,3.93-1.08,5.76.23,9.88Z"/>
      <path class="cls-4" d="M48.92,79.06l-.1-9.89c-.02-1.47-.62-2.76-1.53-3.83l9.07-6.42,20.69-3.33v2.45c0,.64-.34,1.3-.79,1.77l-27.34,19.25Z"/>
      <path class="cls-2" d="M40.77,43.68c-.77.85-1.37,1.82-1.37,3.01l-.03,9.24-27.45-17.39c-.44-.28-.74-.97-.75-1.45-.06-2.91-.09-5.65,0-8.61l19.04,12.2c.67.43,1.44.64,2.17.53l3.64-.55,4.75,3.02Z"/>
      <path class="cls-4" d="M49.94,59.97l-5.81,4.13-38.96-7.06,14.5-10.23,21.4,13.73c.63.36,1.31.59,2,.49l6.86-1.05Z"/>
      <path class="cls-4" d="M28.82,36.27L7.03,22.49c-.38-.24-.72-.74-.72-1.18l.02-6.9c0-.73.46-1.45,1.05-1.85l22.58,14.31c-.69.91-1.05,1.91-1.06,3l-.08,6.41Z"/>
      <path class="cls-2" d="M40.29,39.96l27.57-4.45c.52-.08,1.01-.41,1.2-.76.25-.47.18-1.08-.09-1.55-.99-2.07-1.6-4.25-1.36-6.68l15.14,9.59-38.62,6.31-3.83-2.46Z"/>
    </g>
  </g>
</svg>