<?xml version="1.0" encoding="UTF-8"?>
<svg xmlns="http://www.w3.org/2000/svg" viewBox="0 0 47.13 71.98">
  <defs>
    <style>
      .cls-1 {
        fill: #fff;
      }

      .cls-2 {
        fill: #74bfe1;
        mix-blend-mode: multiply;
        opacity: .5;
      }

      .cls-3 {
        fill: #c7ecf9;
      }

      .cls-4 {
        fill: #00216b;
      }

      .cls-5 {
        isolation: isolate;
      }

      .cls-6 {
        fill: #81d4fa;
      }
    </style>
  </defs>
  <g class="cls-5">
    <g id="Layer_2" data-name="Layer 2">
      <g id="Layer_1-2" data-name="Layer 1">
        <g>
          <rect class="cls-6" x="2.83" y="3.41" width="42.45" height="64.96"/>
          <rect class="cls-2" x="8.82" y="33.08" width="66.13" height="6.78" transform="translate(78.36 -5.41) rotate(90)"/>
          <rect class="cls-1" x="8.63" y="9.87" width="29.87" height="44.22" rx="2.3" ry="2.3"/>
          <rect class="cls-1" x="15.61" y="56.2" width="15.91" height="4.76" rx="2.38" ry="2.38"/>
          <rect class="cls-3" x="20.44" y="26.1" width="25.56" height="3.39" rx="1.7" ry="1.7" transform="translate(61.02 -5.42) rotate(90)"/>
          <path class="cls-4" d="M5.73,71.98C2.37,71.38,0,68.67,0,65.39V6.66C0,3.45,2.43,0,6.06,0h35.03c3.56,0,6.04,3.41,6.04,6.47v11.37c0,.55-.21,1.06-.61,1.45-.38.37-.9.59-1.43.59-1.16-.04-2.05-.91-2.05-2.04V6.51c0-1.39-1.11-2.48-2.5-2.48H6.6c-1.43,0-2.5,1.08-2.5,2.51v58.84c0,1.41,1.1,2.51,2.5,2.51h33.94c1.4,0,2.5-1.1,2.5-2.5V26.92c0-1.15.9-2.06,2.05-2.06,1.16.03,2.04.92,2.04,2.06v38.61c-.02,3.19-2.37,5.84-5.74,6.45H5.73Z"/>
          <path class="cls-4" d="M5.73,71.78c-3.24-.58-5.52-3.21-5.52-6.4V6.66C.2,3.54,2.55.21,6.06.21h35.03c3.44,0,5.84,3.3,5.84,6.27v11.37c0,.49-.19.96-.55,1.31-.35.34-.81.53-1.29.53-1.05-.03-1.85-.82-1.85-1.84V6.51c-.01-1.5-1.19-2.68-2.7-2.68H6.6c-1.54,0-2.7,1.17-2.7,2.71v58.84c0,1.52,1.19,2.71,2.7,2.71h33.94c1.51,0,2.7-1.19,2.7-2.7V26.92c0-1.04.81-1.86,1.85-1.86,1.05.03,1.84.83,1.84,1.86v38.61c-.02,3.09-2.3,5.65-5.56,6.25H5.73Z"/>
        </g>
      </g>
    </g>
  </g>
</svg>